<svg width="165" height="164" viewBox="0 0 165 164" fill="none" xmlns="http://www.w3.org/2000/svg">
<g opacity="0.15" clip-path="url(#clip0_1174_1321)">
<path d="M149.088 36.7541C146.763 36.0695 144.262 36.3349 142.132 37.4922C140.003 38.6494 138.42 40.6039 137.73 42.927L131.508 63.9638C130.82 66.2885 131.084 68.7912 132.242 70.9212C133.4 73.0512 135.356 74.6341 137.681 75.3216C140.006 76.0092 142.508 75.7451 144.638 74.5875C146.768 73.4298 148.351 71.4735 149.039 69.1487L155.261 48.1119C155.945 45.7872 155.68 43.2859 154.522 41.1567C153.365 39.0274 151.411 37.4441 149.088 36.7541ZM145.532 68.1118C145.12 69.5066 144.17 70.6804 142.892 71.375C141.614 72.0696 140.113 72.228 138.718 71.8155C137.323 71.403 136.149 70.4532 135.455 69.1752C134.76 67.8972 134.602 66.3956 135.014 65.0008L137.607 56.2355L148.125 59.3464L145.532 68.1118ZM149.162 55.8403L138.643 52.7293L141.236 43.964C141.648 42.5691 142.598 41.3953 143.876 40.7007C145.154 40.0061 146.656 39.8477 148.051 40.2602C149.445 40.6728 150.619 41.6225 151.314 42.9005C152.008 44.1785 152.167 45.6801 151.754 47.0749L149.162 55.8403Z" fill="#8F7D6A"/>
<path d="M93.7621 50.8893C94.6428 51.1516 95.5667 51.2372 96.4807 51.1414C97.3947 51.0456 98.2807 50.7702 99.0879 50.3309L110.446 44.158C112.074 43.2701 113.283 41.7724 113.807 39.9938C114.332 38.2152 114.129 36.3011 113.244 34.6718C112.358 33.0426 110.862 31.8313 109.084 31.3041C107.307 30.7768 105.392 30.9766 103.762 31.8596L92.403 38.0323C91.1863 38.6926 90.1929 39.6992 89.5487 40.9244C88.9044 42.1497 88.6381 43.5385 88.7837 44.9152C88.9292 46.2918 89.4799 47.5944 90.3661 48.6578C91.2523 49.7213 92.4342 50.4979 93.7621 50.8893ZM105.507 35.0718C105.893 34.8615 106.317 34.7294 106.753 34.6829C107.19 34.6364 107.632 34.6764 108.053 34.8008C108.475 34.9251 108.867 35.1313 109.209 35.4075C109.551 35.6838 109.835 36.0246 110.044 36.4106C110.254 36.7966 110.386 37.2202 110.432 37.6571C110.478 38.094 110.437 38.5357 110.312 38.9569C110.187 39.3781 109.981 39.7706 109.704 40.1119C109.427 40.4532 109.086 40.7366 108.7 40.9459L104.627 43.1595L101.434 37.2852L105.507 35.0718ZM94.1487 41.2444L98.2222 39.0307L101.415 44.9052L97.342 47.1188C96.5631 47.5423 95.6478 47.639 94.7975 47.3876C93.9472 47.1362 93.2316 46.5573 92.8082 45.7784C92.3847 44.9994 92.288 44.0841 92.5394 43.2338C92.7908 42.3835 93.3697 41.6679 94.1487 41.2444Z" fill="#8F7D6A"/>
<path d="M122.088 105.256L110.73 111.429C109.102 112.317 107.893 113.815 107.369 115.593C106.844 117.372 107.047 119.286 107.932 120.915C108.818 122.545 110.314 123.756 112.091 124.283C113.869 124.81 115.784 124.611 117.414 123.728L128.772 117.555C130.4 116.667 131.609 115.169 132.134 113.39C132.658 111.612 132.455 109.698 131.57 108.068C130.684 106.439 129.189 105.228 127.411 104.701C125.633 104.173 123.719 104.373 122.088 105.256ZM115.668 120.515C114.89 120.937 113.975 121.033 113.126 120.781C112.276 120.53 111.562 119.951 111.139 119.173C110.716 118.394 110.619 117.48 110.87 116.63C111.12 115.781 111.698 115.065 112.476 114.641L116.549 112.428L119.741 118.302L115.668 120.515ZM127.026 114.342L122.953 116.556L119.761 110.682L123.834 108.468C124.219 108.258 124.643 108.126 125.08 108.079C125.517 108.033 125.958 108.073 126.38 108.197C126.801 108.322 127.194 108.528 127.535 108.804C127.877 109.08 128.161 109.421 128.371 109.807C128.58 110.193 128.712 110.617 128.758 111.054C128.804 111.491 128.763 111.932 128.639 112.353C128.514 112.775 128.307 113.167 128.03 113.508C127.754 113.85 127.413 114.133 127.026 114.342Z" fill="#8F7D6A"/>
<path d="M49.4347 32.0639L63.4592 36.2118C65.319 36.7619 67.3211 36.5506 69.0251 35.6245C70.7291 34.6984 71.9954 33.1333 72.5455 31.2735C73.0955 29.4137 72.8843 27.4116 71.9581 25.7076C71.032 24.0036 69.4669 22.7373 67.6072 22.1872L53.5826 18.0393C51.7228 17.4892 49.7207 17.7005 48.0167 18.6266C46.3127 19.5527 45.0464 21.1178 44.4963 22.9776C43.9463 24.8374 44.1576 26.8395 45.0837 28.5435C46.0098 30.2475 47.5749 31.5138 49.4347 32.0639ZM61.311 24.1379L66.5702 25.6934C67.5001 25.9684 68.2826 26.6016 68.7457 27.4536C69.2087 28.3056 69.3144 29.3066 69.0393 30.2365C68.7643 31.1664 68.1312 31.9489 67.2792 32.412C66.4271 32.875 65.4261 32.9807 64.4962 32.7057L59.237 31.1502L61.311 24.1379ZM52.5456 21.5454L57.8048 23.1009L55.7309 30.1132L50.4716 28.5577C49.5418 28.2827 48.7592 27.6495 48.2962 26.7975C47.8331 25.9455 47.7275 24.9445 48.0025 24.0146C48.2775 23.0847 48.9107 22.3022 49.7627 21.8391C50.6147 21.3761 51.6157 21.2704 52.5456 21.5454Z" fill="#8F7D6A"/>
<path d="M136.323 86.3584C136.871 84.4987 136.659 82.4975 135.733 80.794C134.807 79.0905 133.243 77.8239 131.385 77.2722L117.36 73.1243C115.5 72.5742 113.498 72.7855 111.794 73.7116C110.09 74.6377 108.824 76.2028 108.274 78.0626C107.724 79.9223 107.935 81.9245 108.861 83.6285C109.787 85.3325 111.352 86.5988 113.212 87.1488L127.237 91.2968C129.096 91.8448 131.098 91.6326 132.801 90.7068C134.504 89.7809 135.771 88.2171 136.323 86.3584ZM119.508 85.1982L114.249 83.6427C113.319 83.3677 112.537 82.7345 112.073 81.8825C111.61 81.0305 111.505 80.0294 111.78 79.0996C112.055 78.1697 112.688 77.3871 113.54 76.9241C114.392 76.461 115.393 76.3554 116.323 76.6304L121.582 78.1859L119.508 85.1982ZM125.088 79.2229L130.348 80.7783C131.277 81.0534 132.06 81.6865 132.523 82.5385C132.986 83.3905 133.092 84.3916 132.817 85.3215C132.542 86.2513 131.908 87.0339 131.056 87.497C130.204 87.96 129.203 88.0656 128.274 87.7906L123.014 86.2351L125.088 79.2229Z" fill="#8F7D6A"/>
<path d="M67.2005 52.8002C64.7329 48.2606 60.5631 44.887 55.6083 43.4215C50.6535 41.9561 45.3195 42.5188 40.7795 44.9859L35.4572 47.8799C33.2093 49.1014 31.224 50.7537 29.6146 52.7425C28.0053 54.7314 26.8036 57.0177 26.078 59.4711C25.3524 61.9244 25.1171 64.4966 25.3857 67.0409C25.6543 69.5851 26.4215 72.0515 27.6434 74.2992L58.9305 131.869C61.398 136.408 65.5677 139.782 70.5224 141.247C75.4771 142.713 80.8109 142.15 85.3507 139.683L90.6747 136.789C95.2142 134.322 98.5877 130.152 100.053 125.198C101.518 120.243 100.956 114.909 98.4885 110.37L67.2005 52.8002ZM30.8555 72.5535C29.863 70.7275 29.2399 68.724 29.0217 66.6572C28.8036 64.5904 28.9947 62.5009 29.5841 60.508C30.1735 58.5151 31.1497 56.6578 32.457 55.0422C33.7642 53.4266 35.377 52.0844 37.203 51.0921L42.5253 48.198C46.2134 46.1942 50.5463 45.7373 54.5713 46.9277C58.5962 48.1181 61.9836 50.8584 63.9884 54.546L78.7594 81.7245L45.6262 99.7321L30.8555 72.5535ZM88.9289 133.577L83.6049 136.471C79.917 138.474 75.5842 138.931 71.5593 137.741C67.5345 136.551 64.1473 133.81 62.1427 130.123L47.372 102.944L80.5051 84.9366L95.2764 112.116C97.2803 115.803 97.7373 120.136 96.5469 124.161C95.3566 128.186 92.6164 131.573 88.9289 133.577Z" fill="#8F7D6A"/>
</g>
<defs>
<clipPath id="clip0_1174_1321">
<rect width="131.626" height="131.626" fill="white" transform="translate(37.9277 0.0644531) rotate(16.4762)"/>
</clipPath>
</defs>
</svg>
