<svg width="50" height="50" viewBox="0 0 50 50" fill="none" xmlns="http://www.w3.org/2000/svg">
<path d="M24.9993 10.417C33.4088 10.417 40.534 18.0173 43.8465 22.2443C44.6555 23.2767 45.06 23.7929 45.1683 24.6027C45.1981 24.8258 45.1981 25.1749 45.1683 25.398C45.06 26.2077 44.6555 26.7239 43.8465 27.7563C40.534 31.9834 33.4088 39.5837 24.9993 39.5837C16.5899 39.5837 9.46471 31.9834 6.15224 27.7563C5.3432 26.7239 4.93867 26.2077 4.83039 25.398C4.80056 25.1749 4.80056 24.8258 4.83039 24.6027C4.93867 23.7929 5.3432 23.2767 6.15224 22.2443C9.46471 18.0173 16.5899 10.417 24.9993 10.417Z" stroke="#8F7D6A" stroke-width="2.5" stroke-linejoin="round"/>
<path d="M31.25 25C31.25 28.4518 28.4518 31.25 25 31.25C21.5482 31.25 18.75 28.4518 18.75 25C18.75 21.5482 21.5482 18.75 25 18.75C28.4518 18.75 31.25 21.5482 31.25 25Z" stroke="#8F7D6A" stroke-width="2.5" stroke-linejoin="round"/>
</svg>
