<svg width="60" height="60" viewBox="0 0 60 60" fill="none" xmlns="http://www.w3.org/2000/svg">
<path d="M15.0003 45.311V47.2139C15.0003 48.7651 13.7428 50.0226 12.1916 50.0226C10.6403 50.0226 9.38281 48.7651 9.38281 47.2139V25.3163C9.38281 23.7651 10.6403 22.5075 12.1916 22.5075C13.7428 22.5075 15.0003 23.7651 15.0003 25.3163V27.5543M15.0003 45.311L18.7497 48.8441C19.301 49.3637 19.5767 49.6234 19.9082 49.8065C20.0161 49.8661 20.134 49.9219 20.2485 49.9675C20.6004 50.1076 20.9676 50.1548 21.7021 50.2492C24.3149 50.5851 29.343 51.1823 32.5003 51.244C35.7699 51.308 40.1325 50.8449 43.0589 50.4706C44.3974 50.2995 45.0666 50.2139 45.6351 49.8494C45.8166 49.7331 45.9987 49.5856 46.1503 49.4322C46.6249 48.9518 46.855 48.2939 47.3154 46.978L52.6685 31.6748C53.6134 28.9736 54.0859 27.623 53.6388 26.5592C53.4961 26.2198 53.2922 25.9095 53.0371 25.6438C52.238 24.8115 50.8108 24.7095 47.9563 24.5055L40.6702 23.9848C38.9881 23.8646 37.793 22.2957 38.1239 20.642C39.0678 17.3421 39.0655 14.5041 38.1168 11.526C37.5582 9.77237 35.848 8.75 34.0447 8.75C32.782 8.75 31.5809 9.29065 31.0712 10.4721C30.0726 12.7866 28.3868 17.5459 25.9296 20.059C22.2776 23.7941 19.5951 25.965 15.0003 27.5543M15.0003 45.311V27.5543" stroke="#503217" stroke-width="2.5" stroke-linecap="round" stroke-linejoin="round"/>
</svg>
