<svg width="25" height="25" viewBox="0 0 25 25" fill="none" xmlns="http://www.w3.org/2000/svg">
<path d="M10 19.5C10 20.3284 9.32843 21 8.5 21C7.67157 21 7 20.3284 7 19.5C7 18.6716 7.67157 18 8.5 18C9.32843 18 10 18.6716 10 19.5Z" stroke="#503217" stroke-width="1.5" stroke-linecap="round" stroke-linejoin="round"/>
<path d="M18 19.5C18 20.3284 17.3284 21 16.5 21C15.6716 21 15 20.3284 15 19.5C15 18.6716 15.6716 18 16.5 18C17.3284 18 18 18.6716 18 19.5Z" stroke="#503217" stroke-width="1.5" stroke-linecap="round" stroke-linejoin="round"/>
<path d="M5.5 14.75C5.08579 14.75 4.75 15.0858 4.75 15.5C4.75 15.9142 5.08579 16.25 5.5 16.25V14.75ZM5.5 12.5H4.75C4.75 12.9142 5.08579 13.25 5.5 13.25V12.5ZM3.5 3.25C3.08579 3.25 2.75 3.58579 2.75 4C2.75 4.41421 3.08579 4.75 3.5 4.75V3.25ZM16.5 10.25C16.9142 10.25 17.25 9.91421 17.25 9.5C17.25 9.08579 16.9142 8.75 16.5 8.75V10.25ZM12.5 13.25C12.9142 13.25 13.25 12.9142 13.25 12.5C13.25 12.0858 12.9142 11.75 12.5 11.75V13.25ZM5.5 8.75C5.08579 8.75 4.75 9.08579 4.75 9.5C4.75 9.91421 5.08579 10.25 5.5 10.25V8.75ZM18.959 13.8703L18.2918 13.5277L18.959 13.8703ZM8.5 6.75H18.0873V5.25H8.5V6.75ZM20.0889 10.0277L18.2918 13.5277L19.6262 14.2128L21.4233 10.7128L20.0889 10.0277ZM16.2903 14.75H5.5V16.25H16.2903V14.75ZM6.25 12.5V6H4.75V12.5H6.25ZM5.5 10.25H16.5V8.75H5.5V10.25ZM5.5 13.25H12.5V11.75H5.5V13.25ZM18.2918 13.5277C17.9065 14.2781 17.1338 14.75 16.2903 14.75V16.25C17.6962 16.25 18.984 15.4636 19.6262 14.2128L18.2918 13.5277ZM18.0873 6.75C19.7705 6.75 20.8577 8.5304 20.0889 10.0277L21.4233 10.7128C22.7046 8.21733 20.8926 5.25 18.0873 5.25V6.75ZM6.25 6C6.25 4.48122 5.01878 3.25 3.5 3.25V4.75C4.19036 4.75 4.75 5.30964 4.75 6H6.25ZM8.5 5.25C6.42893 5.25 4.75 6.92893 4.75 9H6.25C6.25 7.75736 7.25736 6.75 8.5 6.75V5.25Z" fill="#503217"/>
</svg>
