<svg width="168" height="168" viewBox="0 0 168 168" fill="none" xmlns="http://www.w3.org/2000/svg">
<g opacity="0.1" clip-path="url(#clip0_987_934)">
<path d="M111.132 70.5207C110.671 70.756 110.138 70.7972 109.648 70.6415L70.3563 57.9155C69.336 57.5853 68.7752 56.4876 69.1054 55.4674L77.7755 28.6801C79.6348 22.9355 83.6164 18.2593 88.987 15.5151C94.3575 12.771 100.483 12.2828 106.225 14.1439C111.966 16.005 116.651 19.9865 119.395 25.3571C122.141 30.7311 122.627 36.8535 120.766 42.5946L112.098 69.3854C111.938 69.8772 111.592 70.2854 111.132 70.5207ZM73.4056 54.816L109 66.3396L117.07 41.3956C118.606 36.6416 118.204 31.5724 115.932 27.1263C113.66 22.6803 109.788 19.3838 105.033 17.8445C100.277 16.3053 95.2057 16.7043 90.7562 18.9778C86.3067 21.2513 83.0137 25.1215 81.4745 29.8773L73.4056 54.816Z" fill="#8F7D6A"/>
<path d="M56.9548 98.2025C56.4943 98.4378 55.9608 98.479 55.4708 98.3233L28.6817 89.6497C16.8262 85.8125 10.3065 73.0527 14.1437 61.1972C16.003 55.4439 19.9863 50.7711 25.3569 48.027C30.7274 45.2829 36.848 44.793 42.5944 46.6558L69.3852 55.3241C69.877 55.4833 70.2817 55.831 70.5171 56.2916C70.7524 56.7521 70.7935 57.2856 70.6378 57.7757L57.9171 97.069C57.7614 97.559 57.4154 97.9672 56.9548 98.2025ZM27.1261 51.4896C22.6766 53.7631 19.3802 57.6352 17.8409 62.391C14.6676 72.2042 20.0656 82.7687 29.8771 85.9473L54.8193 94.0231L66.3411 58.4253L41.3972 50.3547C36.6414 48.8154 31.5722 49.2179 27.1261 51.4896Z" fill="#8F7D6A"/>
<path d="M104.766 98.2653C100.974 100.203 95.2031 101.462 88.392 97.3613C76.4761 90.1839 75.7163 72.2715 75.6923 71.5152C75.6659 70.6859 76.1706 69.9303 76.9402 69.6331C77.7166 69.3324 78.5951 69.5648 79.1294 70.2001C81.2434 72.7224 84.9431 74.203 88.1254 73.7909C95.2858 72.8746 101.87 74.8379 106.194 79.1825C110.117 83.1168 111.136 88.6398 111.395 90.8305C111.519 91.9024 110.767 92.8671 109.69 92.9896C108.623 93.1154 107.657 92.3517 107.531 91.285C107.319 89.4939 106.499 85.0004 103.434 81.9247C98.5145 76.9801 91.4358 77.2871 88.6165 77.6491C85.7798 78.0112 82.7359 77.3526 80.1341 75.9267C81.0903 81.285 83.6477 89.9648 90.3994 94.0344C94.8503 96.7119 99.3112 96.9391 103.405 94.5852L103.464 94.5551C104.396 94.0792 105.541 94.424 106.05 95.3429C106.569 96.2827 106.229 97.47 105.292 97.9877C105.121 98.0796 104.946 98.1733 104.766 98.2653Z" fill="#8F7D6A"/>
<path d="M118.693 92.1752C118.548 92.2495 118.393 92.3065 118.227 92.3393C100.754 96.189 87.4844 86.3974 87.3583 86.2959C86.5074 85.639 86.3507 84.4179 87.0093 83.5704C87.6714 82.7212 88.8892 82.5663 89.7348 83.2215C89.8539 83.3091 101.904 91.9548 117.389 88.5451C118.439 88.3098 119.477 88.9755 119.702 90.0222C119.899 90.9126 119.462 91.7824 118.693 92.1752Z" fill="#8F7D6A"/>
<path d="M96.5471 141.521C96.0069 141.797 95.4562 142.052 94.8947 142.278C88.5264 144.881 81.7 143.409 79.0588 142.658C78.0268 142.364 77.4278 141.286 77.7214 140.254C78.0202 139.224 79.0932 138.623 80.1253 138.917C82.3742 139.558 88.1797 140.819 93.4234 138.681C101.855 135.193 105.001 126.634 105.972 123.09C106.995 119.358 109.542 115.926 112.828 113.614C106.2 112 93.8223 110.268 85.1181 116.607C79.6456 120.621 77.2197 125.812 77.9053 132.034C78.0207 133.097 77.2517 134.053 76.1815 134.181C75.113 134.295 74.1533 133.527 74.0344 132.457C73.4508 127.162 74.501 119.569 82.8144 113.474C96.8247 103.18 117.883 110.978 118.774 111.313C119.551 111.602 120.057 112.361 120.029 113.187C120.005 114.02 119.451 114.749 118.666 114.989C114.519 116.265 110.835 120.029 109.718 124.115C107.53 132.097 102.78 138.336 96.5471 141.521Z" fill="#8F7D6A"/>
<path d="M77.1147 152.58C76.7476 152.768 76.3187 152.843 75.8832 152.76C74.826 152.571 74.1233 151.563 74.3158 150.504C78.3088 128.399 96.0414 117.801 96.2162 117.699C97.1037 117.171 98.3413 117.499 98.8677 118.436C99.3941 119.372 99.0688 120.555 98.1309 121.087C97.9682 121.179 81.7572 131.174 78.1339 151.199C78.028 151.821 77.6341 152.315 77.1147 152.58Z" fill="#8F7D6A"/>
<path d="M109.859 49.1856C109.416 49.4121 108.886 49.4689 108.375 49.3064C107.355 48.9762 106.794 47.8785 107.124 46.8583L109.666 39.0052C111.519 33.2729 108.364 27.099 102.633 25.2413C101.613 24.9111 101.052 23.8134 101.383 22.7932C101.713 21.773 102.81 21.2121 103.831 21.5423C111.596 24.0588 115.875 32.4314 113.365 40.2025L110.823 48.0555C110.659 48.563 110.303 48.9592 109.859 49.1856Z" fill="#8F7D6A"/>
<path d="M107.243 56.9971C106.803 57.2218 106.278 57.2802 105.769 57.1212C104.747 56.7962 104.179 55.7021 104.499 54.6785L104.616 54.3088C104.946 53.2886 106.039 52.7174 107.059 53.0389C108.081 53.3638 108.648 54.458 108.329 55.4816L108.212 55.8513C108.044 56.3692 107.689 56.7688 107.243 56.9971Z" fill="#8F7D6A"/>
</g>
<defs>
<clipPath id="clip0_987_934">
<rect width="124.431" height="124.431" fill="white" transform="translate(0 56.6162) rotate(-27.065)"/>
</clipPath>
</defs>
</svg>
