<svg width="11" height="12" viewBox="0 0 11 12" fill="none" xmlns="http://www.w3.org/2000/svg">
<path d="M5.20834 11.4372C4.17823 11.4372 3.17125 11.1317 2.31474 10.5594C1.45824 9.98712 0.79067 9.17369 0.396463 8.22199C0.00225677 7.27029 -0.100886 6.22307 0.100079 5.21275C0.301044 4.20243 0.79709 3.27439 1.52549 2.546C2.25389 1.8176 3.18192 1.32155 4.19224 1.12059C5.20256 0.919622 6.24978 1.02276 7.20148 1.41697C8.15318 1.81118 8.96661 2.47874 9.53891 3.33525C10.1112 4.19176 10.4167 5.19873 10.4167 6.22884C10.4152 7.60971 9.86593 8.93359 8.88951 9.91002C7.91309 10.8864 6.58921 11.4357 5.20834 11.4372ZM5.20834 2.06218C4.38425 2.06218 3.57867 2.30655 2.89346 2.76439C2.20826 3.22223 1.6742 3.87297 1.35884 4.63433C1.04347 5.39569 0.960959 6.23347 1.12173 7.04172C1.2825 7.84998 1.67934 8.5924 2.26206 9.17512C2.84478 9.75784 3.58721 10.1547 4.39546 10.3155C5.20371 10.4762 6.04149 10.3937 6.80285 10.0783C7.56421 9.76298 8.21495 9.22892 8.67279 8.54372C9.13063 7.85852 9.375 7.05293 9.375 6.22884C9.37376 5.12416 8.93438 4.06507 8.15325 3.28394C7.37211 2.5028 6.31302 2.06342 5.20834 2.06218Z" fill="#503217"/>
<path d="M7.00977 6.13672C7.00977 6.59766 6.97591 7.01042 6.9082 7.375C6.8431 7.73958 6.73633 8.04818 6.58789 8.30078C6.44206 8.55339 6.25326 8.74609 6.02148 8.87891C5.78971 9.01172 5.50846 9.07812 5.17773 9.07812C4.87044 9.07812 4.60221 9.01172 4.37305 8.87891C4.14648 8.74609 3.95768 8.55339 3.80664 8.30078C3.6582 8.04818 3.54622 7.73958 3.4707 7.375C3.39779 7.01042 3.36133 6.59766 3.36133 6.13672C3.36133 5.67578 3.39388 5.26302 3.45898 4.89844C3.52669 4.53385 3.63216 4.22656 3.77539 3.97656C3.92122 3.72396 4.10872 3.53125 4.33789 3.39844C4.56966 3.26562 4.84961 3.19922 5.17773 3.19922C5.48763 3.19922 5.75716 3.26562 5.98633 3.39844C6.21549 3.52865 6.4056 3.72005 6.55664 3.97266C6.70768 4.22266 6.82096 4.52995 6.89648 4.89453C6.97201 5.25911 7.00977 5.67318 7.00977 6.13672ZM4.08398 6.13672C4.08398 6.52734 4.10352 6.86849 4.14258 7.16016C4.18164 7.45182 4.24414 7.69531 4.33008 7.89062C4.41602 8.08333 4.52799 8.22917 4.66602 8.32812C4.80664 8.42448 4.97721 8.47266 5.17773 8.47266C5.37826 8.47266 5.54883 8.42448 5.68945 8.32812C5.83008 8.23177 5.94466 8.08724 6.0332 7.89453C6.12435 7.70182 6.18945 7.45964 6.22852 7.16797C6.27018 6.8737 6.29102 6.52995 6.29102 6.13672C6.29102 5.74609 6.27018 5.40495 6.22852 5.11328C6.18945 4.82161 6.12435 4.57943 6.0332 4.38672C5.94466 4.19401 5.83008 4.04948 5.68945 3.95312C5.54883 3.85677 5.37826 3.80859 5.17773 3.80859C4.97721 3.80859 4.80664 3.85677 4.66602 3.95312C4.52799 4.04948 4.41602 4.19401 4.33008 4.38672C4.24414 4.57943 4.18164 4.82161 4.14258 5.11328C4.10352 5.40495 4.08398 5.74609 4.08398 6.13672Z" fill="#503217"/>
</svg>
