<svg width="40" height="40" viewBox="0 0 40 40" fill="none" xmlns="http://www.w3.org/2000/svg">
<path d="M15.8333 20.8337L17.6672 23.2788C17.9389 23.641 18.0747 23.8222 18.2563 23.8619C18.3144 23.8747 18.3743 23.8769 18.4331 23.8686C18.6171 23.8426 18.7663 23.6722 19.0645 23.3314L24.1667 17.5003M20 35.8337C28.2068 35.8337 33.0739 25.9628 34.6012 16.3208C34.8111 14.9955 34.9161 14.3328 34.6843 13.6379C34.6134 13.4253 34.4972 13.1796 34.3779 12.9899C33.9879 12.3698 33.3527 11.9973 32.0822 11.2522L22.7316 5.76887C21.5507 5.07633 20.9602 4.73005 20.3176 4.66164C20.1065 4.63916 19.8935 4.63916 19.6824 4.66164C19.0398 4.73005 18.4493 5.07633 17.2684 5.76887L7.91784 11.2522C6.64735 11.9973 6.0121 12.3698 5.62209 12.9899C5.5028 13.1796 5.3866 13.4253 5.3157 13.6379C5.08393 14.3328 5.1889 14.9955 5.39883 16.3208C6.92613 25.9628 11.7932 35.8337 20 35.8337Z" stroke="#503217" stroke-width="2.5" stroke-linecap="round" stroke-linejoin="round"/>
</svg>
