<svg width="255" height="241" viewBox="0 0 255 241" fill="none" xmlns="http://www.w3.org/2000/svg">
<g opacity="0.15">
<mask id="mask0_1671_262" style="mask-type:luminance" maskUnits="userSpaceOnUse" x="0" y="0" width="254" height="240">
<path d="M253.685 122.925L84.6328 0L-0.000295581 116.785L169.052 239.711L253.685 122.925Z" fill="white"/>
</mask>
<g mask="url(#mask0_1671_262)">
<path d="M58.6338 35.9199C61.5544 31.509 65.6294 28.1649 70.1868 25.9475C78.5106 21.8957 89.6335 22.0856 97.1514 30.7094C101.536 35.7404 105.725 40.9888 108.132 47.4241C109.299 50.5451 110.94 53.5039 112.544 56.44C116.545 63.7545 118.914 71.7355 121.085 79.6529C123.023 86.726 125.276 93.7693 126.616 100.978C127.506 105.758 127.348 110.751 127.459 115.653C127.512 117.992 126.188 119.222 123.793 119.728C123.575 119.772 123.353 119.824 123.133 119.829C113.986 119.981 105.871 124.034 97.3608 126.618C92.6774 128.041 87.948 129.34 83.1805 130.45C80.0499 131.18 78.1189 129.961 76.9292 126.862C74.3699 120.194 71.954 113.472 69.3587 106.82C67.3336 101.631 65.2868 96.4956 63.8366 91.0673C62.7617 87.0481 60.41 83.3312 58.3652 79.6243C56.9284 77.0201 56.0763 74.4041 55.8303 71.4143C55.4068 66.2989 54.9593 61.1345 53.8647 56.136C52.1961 48.5035 54.4758 42.0429 58.6338 35.9199ZM84.3342 121.125C88.1028 121.764 90.9526 121.291 93.7032 120.295C99.9962 118.014 106.267 115.673 112.518 113.281C113.537 112.893 114.362 112.028 115.355 111.54C119.198 109.653 120.232 106.342 119.486 102.534C118.204 95.9728 117.127 89.2917 115.004 82.9857C110.882 70.7406 107.248 58.2176 99.7082 47.4173C99.1999 46.6875 98.7156 45.8914 98.4508 45.0521C96.621 39.2706 92.0889 36.0521 87.2864 33.067C84.03 31.0417 80.6014 30.9017 76.9688 31.8719C73.352 32.8397 70.8533 35.3722 68.0492 37.5987C62.606 41.9201 60.5362 47.6768 61.1634 54.2164C62.0153 63.1011 63.2457 71.8973 67.2539 80.1893C71.3306 88.6184 75.3753 97.101 78.3277 106.055C79.9966 111.129 82.2636 115.994 84.3342 121.125Z" fill="#8F7D6A"/>
<path d="M136.726 123.395C144.521 118.959 152.674 115.15 161.717 112.856C169.101 110.983 176.504 109.762 183.987 108.673C195.511 106.994 207.132 106.164 218.722 106.515C226.733 106.757 234.65 108.93 241.284 113.911C244.714 116.486 247.195 120.006 248.454 124.215C249.44 127.509 248.48 130.49 246.353 132.973C240.5 139.815 234.137 146.173 225.569 149.478C220.805 151.315 215.745 152.428 210.765 153.65C200.575 156.148 190.391 158.689 180.125 160.844C172.505 162.441 165.013 164.683 157.152 165.235C153.488 165.494 151.008 164.352 149.28 161.437C146.999 157.598 144.831 153.682 142.844 149.681C140.757 145.479 139.037 141.092 136.986 136.87C134.001 130.721 133.935 130.753 136.726 123.395ZM235.889 131.613C239.456 126.532 238.687 121.451 234.478 118.427C233.222 117.524 231.822 116.768 230.393 116.183C225.373 114.131 220.188 113.158 214.71 113.506C203.805 114.199 192.916 114.906 182.082 116.462C173 117.767 164.137 119.919 155.375 122.527C152.41 123.409 149.527 124.757 146.82 126.271C143.86 127.928 143.371 129.894 144.708 133.055C145.834 135.717 147.401 138.219 148.271 140.954C149.801 145.747 152.566 149.738 155.537 153.67C157.347 156.067 159.527 156.789 162.532 156.369C170.279 155.292 177.856 153.511 185.409 151.553C193.821 149.37 202.204 147.033 210.706 145.261C217.391 143.866 223.513 141.392 229.056 137.545C231.777 135.654 234.104 133.185 235.889 131.613Z" fill="#8F7D6A"/>
<path d="M99.132 176.759C100.978 178.052 101.524 180.744 100.35 182.764C99.0409 185.018 94.6517 185.785 92.6053 184.118C90.8162 182.66 90.5471 179.996 91.9977 178.086C93.7667 175.761 96.8788 175.181 99.132 176.759Z" fill="#8F7D6A"/>
<path d="M86.0773 148.077C88.0733 149.475 88.555 151.899 87.2552 153.982C85.7889 156.328 82.5258 156.861 80.2098 155.128C78.7002 154.002 78.6898 151.221 80.183 149.007C81.4996 147.055 84.047 146.652 86.0773 148.077Z" fill="#8F7D6A"/>
<path d="M122.196 173.297C119.719 171.535 119.004 169.323 119.981 167.718C121.075 165.92 123.061 165.18 125.192 165.824C125.825 166.014 126.455 166.287 127.015 166.637C128.429 167.523 129.305 168.73 129.059 170.519C128.812 172.329 127.402 173.794 125.437 173.84C124.169 173.869 122.889 173.424 122.196 173.297Z" fill="#8F7D6A"/>
<path d="M105.943 160.706C107.713 161.998 107.923 164.709 106.405 166.65C104.95 168.509 102.492 168.826 100.477 167.421C98.4477 166.004 97.9377 163.364 99.3552 161.615C100.907 159.696 103.973 159.272 105.943 160.706Z" fill="#8F7D6A"/>
<path d="M121.871 147.56C123.893 145.131 126.942 144.639 128.748 146.449C130.194 147.899 130.011 150.657 128.349 152.425C126.509 154.38 123.886 154.536 121.87 152.807C120.271 151.435 120.271 149.484 121.871 147.56Z" fill="#8F7D6A"/>
<path d="M124.41 136.837C123.098 138.729 120.665 138.974 118.592 137.421C116.682 135.99 116.078 133.712 117.23 132.281C119.031 130.041 122.327 129.372 124.283 130.846C125.861 132.036 125.918 134.665 124.41 136.837Z" fill="#8F7D6A"/>
<path d="M104.939 145.089C103.645 146.841 100.755 147.244 98.9562 145.925C97.4497 144.819 96.9403 141.928 97.9983 140.501C99.1722 138.925 102.406 138.21 104.061 139.165C105.865 140.208 106.312 143.232 104.939 145.089Z" fill="#8F7D6A"/>
<path d="M117.23 190.339C116.068 192.012 113.599 192.657 112.022 191.706C110.13 190.564 109.556 187.685 110.88 185.959C112.259 184.161 114.794 183.782 116.751 185.075C118.308 186.106 118.524 188.483 117.23 190.339Z" fill="#8F7D6A"/>
</g>
</g>
</svg>
