<svg width="25" height="25" viewBox="0 0 25 25" fill="none" xmlns="http://www.w3.org/2000/svg">
<path d="M10 19.5C10 20.3284 9.32843 21 8.5 21C7.67157 21 7 20.3284 7 19.5C7 18.6716 7.67157 18 8.5 18C9.32843 18 10 18.6716 10 19.5Z" stroke="#EEEDE7" stroke-width="1.5" stroke-linecap="round" stroke-linejoin="round"/>
<path d="M18 19.5C18 20.3284 17.3284 21 16.5 21C15.6716 21 15 20.3284 15 19.5C15 18.6716 15.6716 18 16.5 18C17.3284 18 18 18.6716 18 19.5Z" stroke="#EEEDE7" stroke-width="1.5" stroke-linecap="round" stroke-linejoin="round"/>
<path d="M3.5 3.25C3.08579 3.25 2.75 3.58579 2.75 4C2.75 4.41421 3.08579 4.75 3.5 4.75V4V3.25ZM18.959 13.8703L18.2918 13.5277L18.959 13.8703ZM8.5 6V6.75H18.0873V6V5.25H8.5V6ZM20.7561 10.3703L20.0889 10.0277L18.2918 13.5277L18.959 13.8703L19.6262 14.2128L21.4233 10.7128L20.7561 10.3703ZM16.2903 15.5V14.75H8.5V15.5V16.25H16.2903V15.5ZM5.5 12.5H6.25V12H5.5H4.75V12.5H5.5ZM5.5 12H6.25V9H5.5H4.75V12H5.5ZM5.5 12H6.25V6H5.5H4.75V12H5.5ZM8.5 15.5V14.75C7.25736 14.75 6.25 13.7426 6.25 12.5H5.5H4.75C4.75 14.5711 6.42893 16.25 8.5 16.25V15.5ZM18.959 13.8703L18.2918 13.5277C17.9065 14.2781 17.1338 14.75 16.2903 14.75V15.5V16.25C17.6962 16.25 18.984 15.4636 19.6262 14.2128L18.959 13.8703ZM18.0873 6V6.75C19.7705 6.75 20.8577 8.5304 20.0889 10.0277L20.7561 10.3703L21.4233 10.7128C22.7046 8.21733 20.8926 5.25 18.0873 5.25V6ZM5.5 6H6.25C6.25 4.48122 5.01878 3.25 3.5 3.25V4V4.75C4.19036 4.75 4.75 5.30964 4.75 6H5.5ZM8.5 6V5.25C6.42893 5.25 4.75 6.92893 4.75 9H5.5H6.25C6.25 7.75736 7.25736 6.75 8.5 6.75V6Z" fill="#EEEDE7"/>
</svg>
