<svg width="135" height="164" viewBox="0 0 135 164" fill="none" xmlns="http://www.w3.org/2000/svg">
<g opacity="0.1" clip-path="url(#clip0_1670_194)">
<path d="M65.9573 155.796C67.2124 155.883 68.4676 155.796 69.676 155.447C72.5097 154.635 74.8138 152.454 76.2909 149.898C80.2413 143.066 79.3683 134.993 77.6175 127.657C75.289 117.898 71.4576 109.028 66.7987 100.212C65.1399 97.0738 63.5302 93.9052 61.7651 90.8265C56.3505 81.3902 49.1511 72.6632 43.0178 63.6662C40.7777 60.3802 38.4881 57.0235 35.3014 54.6494C31.1922 51.589 23.3581 50.4615 18.9095 53.5349C14.5135 56.5728 13.0834 62.9784 12.7976 67.9846C12.66 70.3902 12.834 72.8027 13.0962 75.197C15.7078 98.9463 27.1574 121.066 42.2723 139.539C47.7299 146.209 54.1012 152.744 62.3746 155.13C63.5393 155.466 64.7485 155.712 65.9573 155.796ZM61.3351 98.0095C62.2079 99.5821 63.048 100.886 63.684 102.282C65.3844 106.016 67.0351 109.777 68.6375 113.555C70.9844 119.091 72.9073 124.759 73.6784 130.76C74.0874 133.943 74.5151 137.125 74.8486 140.318C74.9252 141.049 74.8262 141.906 74.5031 142.551C73.5602 144.432 72.566 146.304 71.3979 148.048C70.0587 150.048 67.2005 151.95 63.8314 150.777C62.4718 150.304 61.1278 149.778 59.7475 149.37C58.0173 148.859 56.3802 148.143 55.0605 146.93C53.0241 145.059 50.8619 143.252 49.1759 141.089C45.2228 136.013 41.4982 130.758 37.7276 125.541C35.5844 122.574 33.4475 119.596 31.4799 116.513C30.5533 115.06 29.3957 113.63 29.2329 111.627C29.7005 111.332 30.1208 110.944 30.6142 110.777C32.8191 110.029 35.0355 109.313 37.2649 108.642C40.4423 107.683 43.7414 107.058 46.5298 105.071C46.9706 104.757 47.5331 104.603 48.051 104.409C51.6914 103.045 55.2508 101.506 58.5821 99.4761C59.3323 99.0177 60.1352 98.6449 61.3351 98.0095ZM27.0091 106.651C25.6537 105.848 25.2258 104.587 24.7962 103.321C24.0482 101.115 23.4398 98.8466 22.5051 96.7226C20.5595 92.2971 20.1303 87.4987 18.8994 82.9009C18.3558 80.8709 18.0605 78.7746 17.5409 76.7371C17.1005 75.0059 16.6862 73.289 16.8063 71.4857C17.0592 67.6975 17.591 64.0118 19.3854 60.5499C20.9673 57.5002 22.7825 56.0924 26.1516 56.3087C31.7814 56.6685 36.0793 59.1232 38.4657 64.4782C39.0019 65.6839 39.7129 66.8384 40.5033 67.8977C43.6214 72.0734 46.7026 76.2831 49.9874 80.3252C53.2921 84.3934 55.8063 88.976 58.7891 93.2479C58.9618 93.4955 58.9497 93.8737 59.0209 94.1774C49.1126 100.16 38.3232 103.753 27.0091 106.651Z" fill="#8F7D6A"/>
<path d="M108.815 14.0009C97.1511 12.3537 85.438 11.0859 73.7533 9.61049C67.1908 8.78207 60.6358 7.89078 54.1074 6.82866C48.1423 5.85869 41.6496 3.2401 35.8586 5.49871C30.194 7.70677 26.1261 11.2242 24.1994 17.164C23.5226 19.2507 23.1906 21.3498 23.9815 23.6581C25.6505 28.5326 27.3715 32.1238 31.8913 35.0207C36.0816 37.707 41.0969 38.939 45.9474 39.7708C55.5587 41.4169 65.3243 42.0158 74.9406 43.6315C82.9716 44.9806 90.8766 47.0384 98.9366 48.21C110.204 49.8492 124.316 51.3186 130.221 38.9244C133.481 32.0819 131.502 22.9525 125.313 18.5963C121.627 16.0026 117.01 15.2074 112.553 14.5439C111.308 14.3574 110.061 14.1776 108.815 14.0009ZM80.5001 15.1432C82.2616 14.4116 83.9065 14.8444 85.5127 15.0615C91.4478 15.8671 97.3875 16.6435 103.302 17.5852C107.899 18.3172 112.439 19.4016 117.039 20.097C120.093 20.5582 122.281 22.3687 124.535 24.1558C125.04 24.556 125.448 25.1283 125.775 25.6945C127.168 28.1012 127.553 30.6808 126.996 33.4124C126.568 35.5099 125.64 37.4003 124.58 39.2222C122.636 42.5644 122.587 42.5037 119.13 44.251C117.98 44.832 116.835 44.9795 115.603 44.9887C114.61 44.9957 113.606 45.0238 112.628 45.18C110.19 45.5688 107.762 45.542 105.336 45.1594C99.4191 44.2258 93.4947 43.3294 87.5932 42.31C85.0827 41.8766 82.6103 41.2102 80.1379 40.5793C79.113 40.3177 78.7379 39.4915 79.0521 38.5261C81.7182 30.326 82.2947 23.5075 80.5001 15.1432ZM74.6164 14.4842C75.4572 16.7565 76.8919 19.0135 77.3972 21.3733C77.8382 23.4308 77.469 25.5665 77.1003 27.6382C76.5786 30.5664 76.0438 33.5323 74.7833 36.2243C74.3772 37.0907 73.8775 37.9474 73.1093 38.5154C71.3681 39.8015 68.4935 38.387 66.5433 38.3258C60.523 38.1373 54.6465 36.8784 48.7051 36.1117C44.8171 35.6096 41.0879 34.5354 37.4592 33.17C32.4416 31.2826 29.0717 27.8645 28.3209 22.2872C28.0605 20.3505 28.1602 18.4114 29.1071 16.759C31.6067 12.3926 35.171 9.36394 40.4235 9.04099C44.3264 8.80065 48.2127 9.26114 51.9592 10.324C58.185 12.09 64.5873 12.7583 70.9479 13.709C72.2478 13.9045 73.5974 13.8746 74.6164 14.4842Z" fill="#8F7D6A"/>
</g>
<defs>
<clipPath id="clip0_1670_194">
<rect width="147" height="112" fill="white" transform="matrix(-0.161418 0.986886 0.986886 0.161418 23.7285 0)"/>
</clipPath>
</defs>
</svg>
