<svg width="24" height="24" viewBox="0 0 24 24" fill="none" xmlns="http://www.w3.org/2000/svg">
<path d="M9 19H8M9 19H17M9 19C9 18.3761 8.6774 17.8035 8.18429 17.4213C5.86752 15.6255 5.40541 13.7527 5.01305 11.0891C5.00438 11.0302 5 10.9701 5 10.9106C5 9.70536 6.55142 9.21632 7.24257 10.2037L8.5 12V4.3125C8.5 3.58763 9.08763 3 9.8125 3C10.5374 3 11.125 3.58763 11.125 4.3125V12V8.3125C11.125 7.58763 11.7126 7 12.4375 7C13.1624 7 13.75 7.58763 13.75 8.3125V12V9.8125C13.75 9.08763 14.3376 8.5 15.0625 8.5C15.7874 8.5 16.375 9.08763 16.375 9.8125V12V11.3125C16.375 10.5876 16.9626 10 17.6875 10C18.4124 10 19 10.5876 19 11.3125V12C19 13.7372 18.8114 15.4744 17.615 17.2117C17.2493 17.7426 17 18.3553 17 19M18 19H17M8 21H18" stroke="#EEEDE7" stroke-width="1.5" stroke-linecap="round" stroke-linejoin="round"/>
</svg>
